<mxfile host="app.diagrams.net" modified="2022-06-14T00:03:17.566Z" agent="5.0 (Windows NT 10.0; Win64; x64) AppleWebKit/537.36 (KHTML, like Gecko) Chrome/102.0.5005.63 Safari/537.36" etag="uvVsDft8UHUZFZcnbLFq" version="20.0.1" type="github">
  <diagram id="bqEHu0we19FcLCm_rtWE" name="Page-1">
    <mxGraphModel dx="868" dy="516" grid="1" gridSize="10" guides="1" tooltips="1" connect="1" arrows="1" fold="1" page="1" pageScale="1" pageWidth="827" pageHeight="1169" math="0" shadow="0">
      <root>
        <mxCell id="0" />
        <mxCell id="1" parent="0" />
        <mxCell id="o2x_Cc0NWsLEILaOdEzQ-32" style="edgeStyle=none;shape=connector;rounded=0;orthogonalLoop=1;jettySize=auto;html=1;exitX=1;exitY=0.3333333333333333;exitDx=0;exitDy=0;exitPerimeter=0;entryX=0;entryY=0.5;entryDx=0;entryDy=0;labelBackgroundColor=default;fontFamily=Helvetica;fontSize=11;fontColor=default;endArrow=none;strokeColor=default;" parent="1" source="o2x_Cc0NWsLEILaOdEzQ-3" target="o2x_Cc0NWsLEILaOdEzQ-28" edge="1">
          <mxGeometry relative="1" as="geometry" />
        </mxCell>
        <mxCell id="o2x_Cc0NWsLEILaOdEzQ-3" value="Funcionario&lt;br&gt;" style="shape=umlActor;verticalLabelPosition=bottom;verticalAlign=top;html=1;" parent="1" vertex="1">
          <mxGeometry x="80" y="300" width="30" height="60" as="geometry" />
        </mxCell>
        <mxCell id="o2x_Cc0NWsLEILaOdEzQ-6" value="Chillout" style="shape=umlFrame;whiteSpace=wrap;html=1;" parent="1" vertex="1">
          <mxGeometry x="130" y="45" width="530" height="780" as="geometry" />
        </mxCell>
        <mxCell id="o2x_Cc0NWsLEILaOdEzQ-7" value="Login" style="ellipse;whiteSpace=wrap;html=1;" parent="1" vertex="1">
          <mxGeometry x="310" y="240" width="140" height="70" as="geometry" />
        </mxCell>
        <mxCell id="o2x_Cc0NWsLEILaOdEzQ-12" value="" style="endArrow=none;html=1;rounded=0;entryX=1;entryY=0.3333333333333333;entryDx=0;entryDy=0;entryPerimeter=0;" parent="1" source="o2x_Cc0NWsLEILaOdEzQ-7" target="o2x_Cc0NWsLEILaOdEzQ-3" edge="1">
          <mxGeometry width="50" height="50" relative="1" as="geometry">
            <mxPoint x="390" y="250" as="sourcePoint" />
            <mxPoint x="440" y="200" as="targetPoint" />
          </mxGeometry>
        </mxCell>
        <mxCell id="o2x_Cc0NWsLEILaOdEzQ-15" value="Criar Formulário" style="ellipse;whiteSpace=wrap;html=1;" parent="1" vertex="1">
          <mxGeometry x="310" y="320" width="140" height="70" as="geometry" />
        </mxCell>
        <mxCell id="o2x_Cc0NWsLEILaOdEzQ-26" style="edgeStyle=none;shape=connector;rounded=0;orthogonalLoop=1;jettySize=auto;html=1;exitX=0;exitY=0.3333333333333333;exitDx=0;exitDy=0;exitPerimeter=0;entryX=1;entryY=0.5;entryDx=0;entryDy=0;labelBackgroundColor=default;fontFamily=Helvetica;fontSize=11;fontColor=default;endArrow=none;strokeColor=default;" parent="1" source="o2x_Cc0NWsLEILaOdEzQ-20" target="o2x_Cc0NWsLEILaOdEzQ-15" edge="1">
          <mxGeometry relative="1" as="geometry" />
        </mxCell>
        <mxCell id="o2x_Cc0NWsLEILaOdEzQ-31" style="edgeStyle=none;shape=connector;rounded=0;orthogonalLoop=1;jettySize=auto;html=1;exitX=0;exitY=0.3333333333333333;exitDx=0;exitDy=0;exitPerimeter=0;entryX=1;entryY=0.5;entryDx=0;entryDy=0;labelBackgroundColor=default;fontFamily=Helvetica;fontSize=11;fontColor=default;endArrow=none;strokeColor=default;" parent="1" source="o2x_Cc0NWsLEILaOdEzQ-20" target="o2x_Cc0NWsLEILaOdEzQ-27" edge="1">
          <mxGeometry relative="1" as="geometry" />
        </mxCell>
        <mxCell id="o2x_Cc0NWsLEILaOdEzQ-33" style="edgeStyle=none;shape=connector;rounded=0;orthogonalLoop=1;jettySize=auto;html=1;exitX=0;exitY=0.3333333333333333;exitDx=0;exitDy=0;exitPerimeter=0;entryX=1;entryY=0.5;entryDx=0;entryDy=0;labelBackgroundColor=default;fontFamily=Helvetica;fontSize=11;fontColor=default;endArrow=none;strokeColor=default;" parent="1" source="o2x_Cc0NWsLEILaOdEzQ-20" target="o2x_Cc0NWsLEILaOdEzQ-29" edge="1">
          <mxGeometry relative="1" as="geometry" />
        </mxCell>
        <mxCell id="o2x_Cc0NWsLEILaOdEzQ-20" value="Psicologo&lt;br&gt;" style="shape=umlActor;verticalLabelPosition=bottom;verticalAlign=top;html=1;" parent="1" vertex="1">
          <mxGeometry x="680" y="300" width="30" height="60" as="geometry" />
        </mxCell>
        <mxCell id="o2x_Cc0NWsLEILaOdEzQ-21" value="" style="endArrow=none;html=1;rounded=0;exitX=1;exitY=0.5;exitDx=0;exitDy=0;entryX=0;entryY=0.3333333333333333;entryDx=0;entryDy=0;entryPerimeter=0;" parent="1" source="o2x_Cc0NWsLEILaOdEzQ-7" edge="1" target="o2x_Cc0NWsLEILaOdEzQ-20">
          <mxGeometry width="50" height="50" relative="1" as="geometry">
            <mxPoint x="390" y="450" as="sourcePoint" />
            <mxPoint x="830" y="290" as="targetPoint" />
          </mxGeometry>
        </mxCell>
        <mxCell id="o2x_Cc0NWsLEILaOdEzQ-27" value="Elaborar Perguntas" style="ellipse;whiteSpace=wrap;html=1;fontFamily=Helvetica;fontSize=11;fontColor=default;" parent="1" vertex="1">
          <mxGeometry x="310" y="400" width="140" height="70" as="geometry" />
        </mxCell>
        <mxCell id="o2x_Cc0NWsLEILaOdEzQ-28" value="Responder Formulário" style="ellipse;whiteSpace=wrap;html=1;fontFamily=Helvetica;fontSize=11;fontColor=default;" parent="1" vertex="1">
          <mxGeometry x="310" y="480" width="140" height="70" as="geometry" />
        </mxCell>
        <mxCell id="o2x_Cc0NWsLEILaOdEzQ-29" value="Realizar Feedback" style="ellipse;whiteSpace=wrap;html=1;fontFamily=Helvetica;fontSize=11;fontColor=default;" parent="1" vertex="1">
          <mxGeometry x="310" y="560" width="140" height="70" as="geometry" />
        </mxCell>
      </root>
    </mxGraphModel>
  </diagram>
</mxfile>
